<svg
  xmlns="http://www.w3.org/2000/svg"
  width="32"
  height="32"
  viewBox="0 0 32 32"
>
  <path
    fill="currentColor"
    d="M4.962 9C4.385 9 4 9.384 4 9.96v8.243C4 20.793 6.213 23 8.811 23c1.829 0 3.464-1.043 4.33-2.578.866 1.535 2.406 2.578 4.33 2.578 2.695 0 4.812-2.206 4.812-4.797 0-2.686-2.117-4.886-4.811-4.886-1.829 0-3.465 1.043-4.33 2.578-.77-1.535-2.406-2.578-4.33-2.578a4.957 4.957 0 00-2.887.96V9.958c0-.48-.482-.959-.963-.959zm17.08 4.257a.841.841 0 00-.33.15c-.385.288-.5.965-.211 1.349l2.526 3.357-2.526 3.358c-.289.384-.174 1.061.21 1.35.385.287 1.065.173 1.354-.21l2.105-2.879 2.105 2.878c.288.384.968.498 1.353.21.385-.288.499-.965.21-1.349l-2.526-3.358 2.526-3.357c.289-.384.175-1.061-.21-1.35-.385-.287-1.065-.203-1.353.18l-2.105 2.879-2.105-2.878c-.217-.288-.657-.406-1.023-.33zm-13.23 2.068c1.539 0 2.886 1.344 2.886 2.878.096 1.535-1.25 2.878-2.887 2.878a2.89 2.89 0 01-2.886-2.878c0-1.63 1.347-2.878 2.886-2.878zm8.66 0a2.89 2.89 0 012.886 2.878c0 1.535-1.347 2.878-2.886 2.878a2.89 2.89 0 01-2.887-2.878c0-1.63 1.347-2.878 2.887-2.878z"
  />
</svg>
