<svg
  xmlns="http://www.w3.org/2000/svg"
  width="32"
  height="32"
  viewBox="0 0 32 32"
>
  <path fill="currentColor"
    d="M7.998 8.648h2.245a.233.233 0 00.232-.233s-.028-1.931-.028-2.468v-.006c0-.441.093-.825.253-1.148l.077-.144a.05.05 0 00-.026.014l-4.359 4.34a.05.05 0 00-.016.025c.09-.044.213-.106.23-.113.38-.172.84-.267 1.392-.267M24.196 6.56c-.553-.2-1.675-.408-3.084-.575-1.134-.134-2.467-.123-3.272-.098-.097-.665-.56-1.272-1.08-1.482-1.384-.56-3.523-.424-4.071-.27-.437.123-.92.373-1.188.76-.18.258-.297.59-.298 1.051 0 .262.007.878.014 1.426.006.548.014 1.04.014 1.043a.887.887 0 01-.884.888H8.103c-.479 0-.845.08-1.124.208-.28.127-.478.3-.628.503-.3.404-.352.902-.351 1.411 0 0 .004.416.104 1.22.083.622.756 4.971 1.394 6.294.248.514.413.73.9.956 1.083.466 3.559.984 4.72 1.133 1.158.148 1.885.46 2.318-.451.002-.003.087-.227.204-.557.377-1.144.43-2.16.43-2.894 0-.075.108-.078.108 0 0 .519-.098 2.354 1.283 2.847.545.194 1.676.367 2.826.502 1.039.12 1.793.53 1.793 3.208 0 1.628-.34 1.851-2.122 1.851-1.444 0-1.994.038-1.994-1.113 0-.932.917-.834 1.596-.834.304 0 .083-.226.083-.8 0-.572.357-.902.02-.91-2.35-.066-3.733-.003-3.733 2.947 0 2.679 1.021 3.176 4.357 3.176 2.614 0 3.536-.086 4.616-3.45.213-.663.73-2.69 1.043-6.092.197-2.15-.187-8.644-.491-10.282-.178-.958-.746-1.43-1.259-1.616zm-3.3 8.792a4.75 4.75 0 00-.923.056c.081-.66.353-1.473 1.316-1.439 1.066.037 1.216 1.049 1.22 1.734-.45-.201-1.006-.33-1.613-.35"
  />
</svg>
