<svg
  xmlns="http://www.w3.org/2000/svg"
  width="32"
  height="32"
  viewBox="0 0 32 32"
>
  <path fill="currentColor"
    d="M8.797 9.5l-5.632 5.841c-.064.07-.165.228-.165.33 0 .202.127.329.33.329h8.869c1.444 0 2.501-1.09 2.501-2.534V9.5H8.797zM28.67 16H19.8c-1.444 0-2.501 1.09-2.501 2.534V22.5h5.903l5.632-5.841c.064-.07.165-.228.165-.33 0-.202-.127-.329-.33-.329zM16.659 3.165C16.589 3.1 16.43 3 16.329 3c-.202 0-.329.127-.329.33v8.869c0 1.444 1.09 2.501 2.534 2.501H22.5V8.797l-5.841-5.632zM13.466 17.3H9.5v5.903l5.841 5.632c.07.064.228.165.33.165.202 0 .329-.127.329-.33v-8.869c0-1.444-1.09-2.501-2.534-2.501z"
  />
</svg>
