<svg
  xmlns="http://www.w3.org/2000/svg"
  width="32"
  height="32"
  viewBox="0 0 32 32"
>
  <path fill="currentColor"
    d="M13.63 14.39c.07-.102.17-.26.2-.313 1.474-2.683 6.857-2.686 8.49 1.002.43.968.67 1.97.675 3.023.008 1.978.004 3.957.002 5.936 0 1.192-.68 1.945-1.763 1.962-1.087.016-1.856-.766-1.865-1.944-.014-1.874.003-3.749-.006-5.623-.006-1.351-.654-2.388-1.719-2.793-1.775-.675-3.59.305-3.892 2.159-.122.747-.104 1.52-.114 2.281-.016 1.336-.002 2.673-.005 4.01-.003 1.125-.669 1.866-1.707 1.907-1.06.042-1.828-.668-1.922-1.78-.007-.086-.003-.173-.003-.26 0-5.31-.002-10.622.002-15.932 0-1.2.731-2.016 1.79-2.025 1.05-.01 1.832.74 1.837 1.792.01 2.013.003 4.026.005 6.04 0 .12.002.391-.005.558"
  />
</svg>
