<svg
  xmlns="http://www.w3.org/2000/svg"
  width="32"
  height="32"
  viewBox="0 0 32 32"
>
  <path fill="currentColor"
    d="M16 5c2.987 0 3.362.013 4.535.066 1.171.054 1.97.24 2.67.511a5.391 5.391 0 011.949 1.27 5.392 5.392 0 011.269 1.948c.272.7.457 1.499.51 2.67.054 1.173.067 1.548.067 4.535s-.013 3.362-.066 4.535c-.054 1.171-.24 1.97-.511 2.67a5.392 5.392 0 01-1.27 1.949 5.391 5.391 0 01-1.948 1.269c-.7.271-1.499.457-2.67.51-1.173.054-1.548.067-4.535.067s-3.362-.013-4.535-.066c-1.171-.054-1.97-.24-2.67-.511a5.392 5.392 0 01-1.949-1.27 5.391 5.391 0 01-1.268-1.948c-.273-.7-.458-1.499-.512-2.67C5.013 19.362 5 18.987 5 16s.013-3.362.066-4.535c.054-1.171.24-1.97.512-2.67a5.391 5.391 0 011.268-1.949 5.392 5.392 0 011.949-1.269c.7-.271 1.499-.457 2.67-.51C12.638 5.012 13.013 5 16 5zm0 1.982c-2.937 0-3.285.011-4.445.064-1.072.049-1.655.228-2.042.379-.514.2-.88.438-1.265.823a3.41 3.41 0 00-.823 1.264c-.15.388-.33.97-.379 2.043-.053 1.16-.064 1.508-.064 4.445 0 2.937.011 3.285.064 4.445.049 1.072.228 1.655.379 2.043.2.513.438.88.823 1.264.385.385.751.624 1.265.823.387.15.97.33 2.042.379 1.16.053 1.508.064 4.445.064 2.937 0 3.285-.011 4.445-.064 1.072-.049 1.655-.228 2.042-.379.514-.2.88-.438 1.265-.823.385-.385.624-.751.823-1.264.15-.388.33-.97.379-2.043.053-1.16.064-1.508.064-4.445 0-2.937-.011-3.285-.064-4.445-.049-1.072-.228-1.655-.379-2.043-.2-.513-.438-.88-.823-1.264a3.408 3.408 0 00-1.265-.823c-.387-.15-.97-.33-2.042-.379-1.16-.053-1.508-.064-4.445-.064zm0 3.37a5.649 5.649 0 110 11.297 5.649 5.649 0 010-11.298zm0 9.315a3.667 3.667 0 100-7.334 3.667 3.667 0 000 7.334zm7.192-9.539a1.32 1.32 0 11-2.64 0 1.32 1.32 0 012.64 0z"
  />
</svg>
