<svg
  xmlns="http://www.w3.org/2000/svg"
  width="32"
  height="32"
  viewBox="0 0 32 32"
>
  <path fill="currentColor"
    d="M11.715 16.427c.584-2.413 2.699-4.177 5.209-4.177 1.483 0 2.873.621 3.878 1.7.425-.14.922-.248 1.364-.258v-.16c0-3.054-2.214-5.532-4.944-5.532-1.952 0-3.624 1.278-4.428 3.115a3.55 3.55 0 00-2.033-.658c-2.142 0-3.877 1.94-3.877 4.336 0 .258.028.51.068.754-1.652.167-2.946 1.9-2.946 3.79 0 .02.005.037.005.056-.001.017-.011.035-.011.052 0 .757.257 1.449.673 2.007a3.14 3.14 0 002.568 1.317h1.513a4.49 4.49 0 01-.477-1.987c-.001-2.138 1.476-3.93 3.438-4.355zm13.752 2.375c-.03 0-.06.01-.09.01.008-.09.026-.18.026-.273 0-1.812-1.431-3.279-3.198-3.279-.703 0-1.347.24-1.877.635-.655-1.249-1.924-2.107-3.405-2.107-2.146 0-3.885 1.784-3.885 3.984 0 .029.008.053.009.082a2.764 2.764 0 00-.431-.045c-1.602 0-2.898 1.33-2.898 2.973 0 .205.02.406.059.599C10.05 22.87 11.322 24 12.856 24h12.847v-.023C26.99 23.85 28 22.753 28 21.402c0-1.435-1.134-2.6-2.533-2.6z"
  />
</svg>
