<svg
  xmlns="http://www.w3.org/2000/svg"
  width="32"
  height="32"
  viewBox="0 0 32 32"
>
  <path fill="currentColor"
    d="M16 5c6.074 0 11 4.926 11 11s-4.926 11-11 11S5 22.074 5 16 9.926 5 16 5zm6.076 6.327a.992.992 0 10-1.403-1.403l-1.128 1.128c-1.431-.92-3.47-.768-4.697.461l-3.186 3.185a3.7 3.7 0 00-1.09 2.636c0 .748.22 1.46.624 2.067l-1.272 1.272a.992.992 0 101.402 1.403l1.273-1.272c.606.405 1.32.623 2.067.623.997 0 1.933-.386 2.634-1.089l3.187-3.186a3.729 3.729 0 00.464-4.7l1.125-1.125zm-4.252 3.841a.982.982 0 00.701-.29l.95-.95c.067.188.114.385.114.591 0 .466-.178.904-.505 1.23l-3.186 3.187c-.472.47-1.197.588-1.813.382l.793-.792a.992.992 0 10-1.404-1.404l-.801.802a1.752 1.752 0 01-.115-.59c0-.468.179-.905.506-1.232l3.186-3.186a1.736 1.736 0 011.23-.507c.207 0 .404.049.592.116l-.948.95a.992.992 0 00.7 1.693z"
  />
</svg>
